<?xml version="1.0" encoding="utf-8"?>

<!DOCTYPE svg PUBLIC "-//W3C//DTD SVG 1.1//EN" "http://www.w3.org/Graphics/SVG/1.1/DTD/svg11.dtd">
<svg version="1.1" id="Layer_1" xmlns="http://www.w3.org/2000/svg" xmlns:xlink="http://www.w3.org/1999/xlink" x="0px" y="0px"
	 viewBox="-53 -32 906 1984" enable-background="new -53 -32 906 1984" xml:space="preserve">
<g>
	<path fill="#582200" stroke="#582200" stroke-width="0.5" d="M428.866,10.236c16.97-1.53,34.05-1.16,51.07-0.7
		c5.71,0.59,11.46,0.86,17.12,1.87c19.92,3.2,39.84,7.5,58.32,15.8c15.51,6.12,29.93,14.83,42.95,25.23
		c7.47,6.18,15.78,11.34,24.53,15.51c7.53,3.42,15.63,6.16,24.02,5.74c5.39,0.28,11.92-0.8,15.17-5.56c3.31-4.89-1.5-9.9-0.93-15.05
		c4.89-0.18,8.46,3.75,11.82,6.76c14.54,15.29,24.25,34.65,30.06,54.81c2.27,8.54,1.52,17.48,1.59,26.22
		c0.13,14.66-5.52,28.43-9.56,42.28c-1.49,5.55-4.19,10.7-5.5,16.32c-1.42,5.93-2.86,11.87-3.89,17.88
		c-0.39,5.1-0.76,10.21-1.11,15.32c-1.42,15.77-2.28,31.61-4.21,47.33c-0.82,10.4-2.79,20.66-4.02,31.01
		c-1.06,5.26-1.75,10.71-4.33,15.5c-0.67-0.15-2-0.44-2.67-0.59c-1.45-4.87-3.78-9.48-4.64-14.52c-1.36-7.89-0.21-15.9-0.57-23.84
		c2-22.49,4.66-45.13,2.48-67.71c-0.51-9.32-2.14-18.54-3.76-27.72c-2.01-10.99-5.54-21.92-12.07-31.09
		c-3.66-5.06-8.68-9.37-14.78-11.09c-7.52-2.13-15.35-2.9-23.12-3.53c-22.83-0.84-46.02-0.3-68.24,5.45
		c-10.06,2.44-18.1,10.38-28.66,11.1c-8.81,0.79-16.82-3.66-24.12-7.98c-9.87-6-21.67-6.62-32.76-8.58
		c-20.26-2.43-40.88-3.05-61.14-0.25c-7.49,1.34-15.64,3.01-21.29,8.49c-5.95,6.99-8.04,16.32-9.57,25.14
		c-2.22,15.93-2.75,32.03-2.67,48.1c0.14,7-0.48,14.05,0.68,21c0.22,3.33-0.27,6.65-0.48,9.98c-0.39,16.9,0.52,33.86-0.9,50.73
		c-0.77,4.14-2.72,7.94-5.69,10.92c-2.96-2.04-4.25-5.51-5.03-8.87c-2.34-12.11-3.87-24.42-3.79-36.77
		c-1.3-14.26-0.5-28.59-1.08-42.88c-1.21-14.63,0.16-29.35-0.79-44c-0.87-7.61-3.31-15-6.64-21.87
		c-3.65-8.03-10.44-14.27-13.34-22.69c-3.08-9.98-4.97-20.38-9.12-30.01c-2.42-4.25-5.61-9.86-11.32-9.32
		c-6.52-0.67-11.29,4.34-16.47,7.35c-1.63,0.72-3.82,2.84-5.03,0.43c1.27-4.66,4.4-8.52,7.21-12.35
		c6.48-7.77,13.75-15.03,22.32-20.5c6.18-4.09,14.28-5,19.39-10.73c0.02-0.89,0.01-1.78-0.03-2.67c-4.29-0.55-8.68-0.63-12.95,0.07
		c-13.45,3.26-25.82,10.15-39.59,12.19c-1.73,0.28-4.26,0.23-4.39-2.06c2.79-4.64,7.74-7.31,12.02-10.39
		c16.98-10.35,34.99-19.4,54.29-24.52c32.53-8.27,66.58-5.15,99.26-12.35c3.29-0.76,6.4-2.07,9.53-3.29
		c0.04-0.54,0.12-1.61,0.15-2.15c-5.96-3.47-13.13-2.57-19.72-3.01c-7.95-0.84-16.19-0.55-23.77-3.45
		c-1.31-0.22-1.95-1.31-2.11-2.53C413.816,11.016,421.486,10.616,428.866,10.236z"/>
	<path fill="#FFAE6E" stroke="#FFAE6E" stroke-width="0.5" d="M397.916,146.156c20.26-2.8,40.88-2.18,61.14,0.25
		c11.09,1.96,22.89,2.58,32.76,8.58c7.3,4.32,15.31,8.77,24.12,7.98c10.56-0.72,18.6-8.66,28.66-11.1
		c22.22-5.75,45.41-6.29,68.24-5.45c7.77,0.63,15.6,1.4,23.12,3.53c6.1,1.72,11.12,6.03,14.78,11.09
		c6.53,9.17,10.06,20.1,12.07,31.09c1.62,9.18,3.25,18.4,3.76,27.72c2.18,22.58-0.48,45.22-2.48,67.71c-1.03,4.05-1,8.23-0.93,12.37
		c0.17,5.62-2.51,10.71-4.5,15.8c-8.23,19.06-18.72,37.15-31.22,53.73c-7.9,9.98-16.08,20.08-26.74,27.26
		c-4.65,3.15-9.29,6.47-14.69,8.19c-3.01-2.46-1.26-6.29-0.51-9.37c3.48-11.59,6.28-23.51,6.57-35.66
		c-0.04-6.68-1.16-14.1-6.31-18.88c-5.8-5.75-14.77-5.9-22.33-4.62c-11.61,1.72-21.5,8.77-32.91,11.17
		c1.41-3.14,5.03-6.02,3.54-9.76c-5.55,2.77-9.88,7.98-16.18,9.13c-7.39,1.04-14.9-1.16-21.36-4.67c-4.1-2.1-6.05-6.9-5.61-11.34
		c0.5-6.19,2.48-12.14,3.88-18.16c1.34-2.67,2.9-5.3,3.5-8.26c1.15-10.64,0.26-21.4,1.33-32.04c9.83,0.03,19.67-0.25,29.49,0.17
		c0.44,9.1,0.07,18.21,0.15,27.32c-0.6,10.42,9.17,20.14,19.57,19.58c28.7-0.05,57.4-0.05,86.11,0c9.11,0.46,17.73-6.95,18.97-15.93
		c0.89-5.86,0.31-11.81,0.45-17.7c-0.2-8.17,0.69-16.43-1.03-24.48c3.03-0.37,7.01,0.64,9.22-1.97c1.44-3.49,0.76-7.47-0.18-11.01
		c-9.5-0.49-19.01,0.04-28.49-0.84c-15.65,0.86-31.33,0.48-47,0.55c-13.01-0.04-26.03,0.1-39.03,0.03
		c-5.63-0.16-11.1,2.75-14.46,7.2c-1.8,2.4-2.61,5.42-4.61,7.68c-9.94,0.45-19.92,0.17-29.87,0.1c-2.75-7.33-8.62-14.55-17.02-14.92
		c-24.67-0.14-49.34-0.08-74.01-0.09c-6.34-0.15-12.68-0.99-19.01-0.28c-7.91,0.92-15.94-0.45-23.8,1.03c-1.16-6.95-0.54-14-0.68-21
		c-0.08-16.07,0.45-32.17,2.67-48.1c1.53-8.82,3.62-18.15,9.57-25.14C382.276,149.166,390.426,147.496,397.916,146.156
		 M419.166,239.236c-1.78,0.71-3,2.21-4.1,3.7c2.31,2.39,5.87,1.53,8.82,1.31c6.24-1.3,12.64-1.07,18.97-1.02
		c9.77-0.15,19.32,2.35,29.04,2.84c3.88-0.04,8.37-2.8,7.66-7.22c0.82-4.41-3.72-6.91-7.2-8.19c-7.44-0.61-14.95-0.43-22.41-0.11
		C439.366,232.026,428.876,234.696,419.166,239.236 M554.406,230.666c-3.51,1.2-7.64,4.02-7.21,8.23c-0.4,3.76,3.34,6.53,6.7,7.1
		c10.05-0.19,19.91-2.91,29.99-2.77c6.67-0.11,13.39-0.2,19.96,1.13c2.47-0.04,6.08,1.11,7.64-1.42c-0.67-2.08-2.75-3.16-4.55-4.1
		c-9.21-4.42-19.3-6.57-29.33-8.21C569.896,230.156,562.106,230.066,554.406,230.666z"/>
	<path fill="#562100" stroke="#562100" stroke-width="0.5" d="M419.166,239.236c9.71-4.54,20.2-7.21,30.78-8.69
		c7.46-0.32,14.97-0.5,22.41,0.11c3.48,1.28,8.02,3.78,7.2,8.19c0.71,4.42-3.78,7.18-7.66,7.22c-9.72-0.49-19.27-2.99-29.04-2.84
		c-6.33-0.05-12.73-0.28-18.97,1.02c-2.95,0.22-6.51,1.08-8.82-1.31C416.166,241.446,417.386,239.946,419.166,239.236z"/>
	<path fill="#562100" stroke="#562100" stroke-width="0.5" d="M554.406,230.666c7.7-0.6,15.49-0.51,23.2-0.04
		c10.03,1.64,20.12,3.79,29.33,8.21c1.8,0.94,3.88,2.02,4.55,4.1c-1.56,2.53-5.17,1.38-7.64,1.42c-6.57-1.33-13.29-1.24-19.96-1.13
		c-10.08-0.14-19.94,2.58-29.99,2.77c-3.36-0.57-7.1-3.34-6.7-7.1C546.766,234.686,550.896,231.866,554.406,230.666z"/>
	<path fill="#FFAE6E" stroke="#FFAE6E" stroke-width="0.5" d="M348.096,231.996c0.58,14.29-0.22,28.62,1.08,42.88
		c-0.08,12.35,1.45,24.66,3.79,36.77c-13.4-5.88-21.73-19.34-25.84-32.89c-2.41-7.38-2.13-15.23-1.78-22.88
		c1.17-7.75,4.6-15.84,11.41-20.25C340.106,233.326,344.206,232.766,348.096,231.996z"/>
	<path fill="#FFAE6E" stroke="#FFAE6E" stroke-width="0.5" d="M680.316,279.996c1.93-15.72,2.79-31.56,4.21-47.33
		c7.04,1.5,12.49,6.98,15.32,13.42c3.9,7.66,2.81,16.5,2.67,24.78c-1.32,10.9-6.11,21.28-13,29.79c-3.47,4.46-8.05,8.05-13.22,10.35
		C677.526,300.656,679.496,290.396,680.316,279.996z"/>
	<path fill="#2E2F2F" stroke="#2E2F2F" stroke-width="0.5" d="M365.066,248.886c7.86-1.48,15.89-0.11,23.8-1.03
		c6.33-0.71,12.67,0.13,19.01,0.28c24.67,0.01,49.34-0.05,74.01,0.09c8.4,0.37,14.27,7.59,17.02,14.92
		c9.95,0.07,19.93,0.35,29.87-0.1c2-2.26,2.81-5.28,4.61-7.68c3.36-4.45,8.83-7.36,14.46-7.2c13,0.07,26.02-0.07,39.03-0.03
		c15.67-0.07,31.35,0.31,47-0.55c9.48,0.88,18.99,0.35,28.49,0.84c0.94,3.54,1.62,7.52,0.18,11.01c-2.21,2.61-6.19,1.6-9.22,1.97
		c1.72,8.05,0.83,16.31,1.03,24.48c-0.14,5.89,0.44,11.84-0.45,17.7c-1.24,8.98-9.86,16.39-18.97,15.93
		c-28.71-0.05-57.41-0.05-86.11,0c-10.4,0.56-20.17-9.16-19.57-19.58c-0.08-9.11,0.29-18.22-0.15-27.32
		c-9.82-0.42-19.66-0.14-29.49-0.17c-1.07,10.64-0.18,21.4-1.33,32.04c-0.6,2.96-2.16,5.59-3.5,8.26c-2.16,1.77-4.42,3.43-6.78,4.92
		c-5.37,2.53-11.39,1.76-17.13,1.82c-26.02,0-52.05-0.03-78.07,0.02c-6.63,0.3-12.83-3.8-16.28-9.26
		c-3.71-6.11-2.99-13.52-3.01-20.36c0.22-9.49-0.67-19.07,1.01-28.48c-3.5,0.02-7.22,0-9.94-2.54
		C364.796,255.536,365.286,252.216,365.066,248.886 M383.166,266.866c-0.04,11.35-0.05,22.7,0,34.05c-0.15,5.5,5.41,9.77,10.68,9.36
		c28.35,0.01,56.71,0.02,85.05-0.01c5.22,0.34,10.73-3.92,10.57-9.36c0.04-11.02-0.03-22.04,0.03-33.06
		c0.62-5.32-4.22-10.76-9.59-10.56c-6.8-0.07-13.6,0.05-20.4-0.07c-0.49,0.52-0.97,1.05-1.45,1.58c-1.89-0.44-3.82-0.66-5.75-0.8
		c-3.69-1.67-8.49-1.62-11.98,0.54c0.14-0.31,0.44-0.93,0.58-1.24c-16.02-0.05-32.05-0.02-48.07-0.01
		C387.676,256.976,382.796,261.636,383.166,266.866 M543.466,258.486c-3.15,1.98-5.15,5.62-4.97,9.36
		c-0.01,10.69-0.03,21.39,0.01,32.08c-0.31,5.59,4.74,10.64,10.34,10.33c28.69,0.03,57.38,0.06,86.07-0.01
		c5.61,0.3,10.34-4.81,10.22-10.31c0.08-10.69,0.05-21.4,0.01-32.09c0.27-5.46-4.54-11.14-10.2-10.58
		c-16.16-0.02-32.32,0.09-48.47-0.06c-0.47,0.54-0.93,1.08-1.39,1.63c-1.9-0.5-3.85-0.7-5.79-0.84c-3.75-1.78-8.42-1.38-12.09,0.39
		c0.17-0.27,0.51-0.8,0.68-1.06c-5.68-0.16-11.36,0.01-17.03-0.08C548.376,257.356,545.596,256.906,543.466,258.486z"/>
	<path fill="#FFAE6E" stroke="#FFAE6E" stroke-width="0.5" d="M383.166,266.866c-0.37-5.23,4.51-9.89,9.67-9.58
		c16.02-0.01,32.05-0.04,48.07,0.01c-0.14,0.31-0.44,0.93-0.58,1.24c-2.23,3.48-4.82,7.05-4.98,11.35
		c-0.32,5.81-0.69,12.03,2.19,17.33c2.29,4.4,6.09,9,11.4,9.37c5.92,0.66,11.21-3.77,13.5-8.93c2.56-5.96,3.62-12.75,1.98-19.1
		c-0.85-4.08-2.91-7.74-4.91-11.34c6.8,0.12,13.6,0,20.4,0.07c5.37-0.2,10.21,5.24,9.59,10.56c-0.06,11.02,0.01,22.04-0.03,33.06
		c0.16,5.44-5.35,9.7-10.57,9.36c-28.34,0.03-56.7,0.02-85.05,0.01c-5.27,0.41-10.83-3.86-10.68-9.36
		C383.116,289.566,383.126,278.216,383.166,266.866z"/>
	<path fill="#172627" stroke="#172627" stroke-width="0.5" d="M440.326,258.536c3.49-2.16,8.29-2.21,11.98-0.54
		c-1.38,1.67-3.09,3.21-3.82,5.31c-0.64,3.92-0.78,8.6,2.38,11.55c1.25,1.71,3.52,1.82,5.42,1.37c3.65-1.92,5.27-6.41,4.8-10.34
		c-0.48-2.56-1.85-4.81-3.03-7.09c0.48-0.53,0.96-1.06,1.45-1.58c2,3.6,4.06,7.26,4.91,11.34c1.64,6.35,0.58,13.14-1.98,19.1
		c-2.29,5.16-7.58,9.59-13.5,8.93c-5.31-0.37-9.11-4.97-11.4-9.37c-2.88-5.3-2.51-11.52-2.19-17.33
		C435.506,265.586,438.096,262.016,440.326,258.536z"/>
	<path fill="#FFAE6E" stroke="#FFAE6E" stroke-width="0.5" d="M543.466,258.486c2.13-1.58,4.91-1.13,7.39-1.24
		c5.67,0.09,11.35-0.08,17.03,0.08c-0.17,0.26-0.51,0.79-0.68,1.06c-4.42,6.35-6.78,14.48-4.97,22.14
		c1.07,5.31,3.36,10.85,7.95,14.04c4.65,3.37,11.78,2.62,15.4-1.95c6.46-6.43,6.69-16.25,5.49-24.71c-0.72-3.87-2.84-7.25-4.6-10.7
		c16.15,0.15,32.31,0.04,48.47,0.06c5.66-0.56,10.47,5.12,10.2,10.58c0.04,10.69,0.07,21.4-0.01,32.09
		c0.12,5.5-4.61,10.61-10.22,10.31c-28.69,0.07-57.38,0.04-86.07,0.01c-5.6,0.31-10.65-4.74-10.34-10.33
		c-0.04-10.69-0.02-21.39-0.01-32.08C538.316,264.106,540.316,260.466,543.466,258.486z"/>
	<path fill="#172527" stroke="#172527" stroke-width="0.5" d="M567.206,258.386c3.67-1.77,8.34-2.17,12.09-0.39
		c-1.72,2.06-4.07,4.08-4.04,7c-0.16,3.2-0.42,6.97,2.11,9.41c1.35,1.86,3.75,2.44,5.92,1.83c2.99-1.66,4.51-5.08,4.94-8.34
		c0.21-3.32-1.76-6.2-3.14-9.06c0.46-0.55,0.92-1.09,1.39-1.63c1.76,3.45,3.88,6.83,4.6,10.7c1.2,8.46,0.97,18.28-5.49,24.71
		c-3.62,4.57-10.75,5.32-15.4,1.95c-4.59-3.19-6.88-8.73-7.95-14.04C560.426,272.866,562.786,264.736,567.206,258.386z"/>
	<path fill="#FFFFFF" stroke="#FFFFFF" stroke-width="0.5" d="M452.306,257.996c1.93,0.14,3.86,0.36,5.75,0.8
		c1.18,2.28,2.55,4.53,3.03,7.09c0.47,3.93-1.15,8.42-4.8,10.34c-1.9,0.45-4.17,0.34-5.42-1.37c-3.16-2.95-3.02-7.63-2.38-11.55
		C449.216,261.206,450.926,259.666,452.306,257.996z"/>
	<path fill="#FFFFFF" stroke="#FFFFFF" stroke-width="0.5" d="M579.296,257.996c1.94,0.14,3.89,0.34,5.79,0.84
		c1.38,2.86,3.35,5.74,3.14,9.06c-0.43,3.26-1.95,6.68-4.94,8.34c-2.17,0.61-4.57,0.03-5.92-1.83c-2.53-2.44-2.27-6.21-2.11-9.41
		C575.226,262.076,577.576,260.056,579.296,257.996z"/>
	<path fill="#FFAE6E" stroke="#FFAE6E" stroke-width="0.5" d="M363.686,309.596c1.42-16.87,0.51-33.83,0.9-50.73
		c2.72,2.54,6.44,2.56,9.94,2.54c-1.68,9.41-0.79,18.99-1.01,28.48c0.02,6.84-0.7,14.25,3.01,20.36c3.45,5.46,9.65,9.56,16.28,9.26
		c26.02-0.05,52.05-0.02,78.07-0.02c5.74-0.06,11.76,0.71,17.13-1.82c0.34,0.16,1.02,0.47,1.36,0.62c-0.67,8.91-3.8,17.7-1.89,26.7
		c-10.6-2.14-21.32-5.49-32.25-3.67c-8.65,1.02-16.92,6.13-20.83,14.04c-4.36,9.23-4.17,19.63-5.43,29.55
		c-0.56,3.09-1.15,7.22-4.6,8.38c-2.94,0.5-5.59-1.47-7.92-3c-10.33-7.88-19.38-17.33-27.54-27.42
		c-10.07-12.58-18.23-26.95-22.28-42.64C365.756,316.656,364.756,313.116,363.686,309.596z"/>
	<path fill="#E18D54" stroke="#E18D54" stroke-width="0.5" d="M663.156,299.926c-0.07-4.14-0.1-8.32,0.93-12.37
		c0.36,7.94-0.79,15.95,0.57,23.84c0.86,5.04,3.19,9.65,4.64,14.52c-1.43,8.38-3.76,16.66-6.28,24.79
		c-3.12,9.55-6.86,19.17-13.33,27c-10.65,12.47-23.83,22.43-37.27,31.68c-17.73,11.97-36.49,22.45-56.09,31.05
		c-2.22,0.98-4.53,1.75-6.84,2.48c-0.87,1.8-1.39,3.73-1.85,5.67c-16.53,8.53-33.13,16.93-49.79,25.2
		c-6.3,3.07-12.35,6.71-18.99,9.02c-0.47-13.68,0.41-27.4-0.31-41.09c-17.02-6.73-33.32-15.2-49.1-24.45
		c-17.87-10.87-35.69-22.51-49.81-38.14c-6.35-6.69-9.77-15.41-13.07-23.85c-3.91-11.12-6.67-22.63-8.99-34.17l0.42-0.59
		c2.97-2.98,4.92-6.78,5.69-10.92c1.07,3.52,2.07,7.06,2.94,10.63c4.05,15.69,12.21,30.06,22.28,42.64
		c8.16,10.09,17.21,19.54,27.54,27.42c2.33,1.53,4.98,3.5,7.92,3c3.45-1.16,4.04-5.29,4.6-8.38c1.26-9.92,1.07-20.32,5.43-29.55
		c3.91-7.91,12.18-13.02,20.83-14.04c10.93-1.82,21.65,1.53,32.25,3.67c-1.91-9,1.22-17.79,1.89-26.7
		c-0.34-0.15-1.02-0.46-1.36-0.62c2.36-1.49,4.62-3.15,6.78-4.92c-1.4,6.02-3.38,11.97-3.88,18.16c-0.44,4.44,1.51,9.24,5.61,11.34
		c6.46,3.51,13.97,5.71,21.36,4.67c6.3-1.15,10.63-6.36,16.18-9.13c1.49,3.74-2.13,6.62-3.54,9.76c11.41-2.4,21.3-9.45,32.91-11.17
		c7.56-1.28,16.53-1.13,22.33,4.62c5.15,4.78,6.27,12.2,6.31,18.88c-0.29,12.15-3.09,24.07-6.57,35.66
		c-0.75,3.08-2.5,6.91,0.51,9.37c5.4-1.72,10.04-5.04,14.69-8.19c10.66-7.18,18.84-17.28,26.74-27.26
		c12.5-16.58,22.99-34.67,31.22-53.73C660.646,310.636,663.326,305.546,663.156,299.926 M571.246,346.306
		c-14.65,3.66-27.39,12.97-42.37,15.64c-9.11,1.41-18.41,2.58-27.63,1.47c-11.92-1.73-22.95-6.84-34.35-10.49
		c-5.3-1.56-11.46-3.44-16.69-0.71c-3.99,1.82-4.41,6.63-5.6,10.32c-2.89,10.95-6.84,22.64-3.23,33.91
		c2.73,8.69,9.98,14.85,17.52,19.42c8.41,5.32,18.78,4.6,28.17,6.73c4.99,1.3,9.53-1.31,13.5-4c5.78-3.71,13.25-5.7,19.92-3.36
		c5.48,1.78,8.49,7.96,14.46,8.67c5.16,0.38,9.86-2.38,14.26-4.71c6.89-4.16,13.74-8.84,18.56-15.42
		c6.32-7.96,9.71-17.72,12.67-27.31c1.77-6.11,3.79-12.23,4.33-18.6c0.17-3.31,0.07-7.06-2.16-9.72
		C579.646,345.166,575.016,345.596,571.246,346.306z"/>
	<path fill="#FFAE6E" stroke="#FFAE6E" stroke-width="0.5" d="M571.246,346.306c3.77-0.71,8.4-1.14,11.36,1.84
		c2.23,2.66,2.33,6.41,2.16,9.72c-0.54,6.37-2.56,12.49-4.33,18.6c-2.96,9.59-6.35,19.35-12.67,27.31
		c-4.82,6.58-11.67,11.26-18.56,15.42c-4.4,2.33-9.1,5.09-14.26,4.71c-5.97-0.71-8.98-6.89-14.46-8.67
		c-6.67-2.34-14.14-0.35-19.92,3.36c-3.97,2.69-8.51,5.3-13.5,4c-9.39-2.13-19.76-1.41-28.17-6.73
		c-7.54-4.57-14.79-10.73-17.52-19.42c-3.61-11.27,0.34-22.96,3.23-33.91c1.19-3.69,1.61-8.5,5.6-10.32
		c5.23-2.73,11.39-0.85,16.69,0.71c11.4,3.65,22.43,8.76,34.35,10.49c9.22,1.11,18.52-0.06,27.63-1.47
		C543.856,359.276,556.596,349.966,571.246,346.306 M569.246,357.236c-8.46,1.66-13.87,9.04-21.43,12.54
		c-8.42,3.86-17.73,5.09-26.83,6.32c-11.97,1.4-24.1,2.28-36.12,0.99c-7.18-0.73-14.52-1.85-21-5.2c-4.65-2.42-8.46-6.9-14.02-7.17
		c-2.08-0.39-4.16,0.28-5.29,2.11c1.76,2.41,3.88,4.75,6.92,5.44c13.99,3.93,27.61,10.42,42.4,10.38
		c10.4-0.49,20.82-0.98,31.12-2.58c8.12-1.29,16.39-2.19,24.2-4.91c3.69-1.28,6.48-4.09,9.6-6.31c4.91-3.49,11.67-2.02,16.56-5.52
		c1.09-0.92,2.75-2.27,1.9-3.87C576.276,355.986,571.946,356.596,569.246,357.236 M481.776,394.856c0.34,2.91,3.12,4.39,5.4,5.72
		c5.67,2.99,11.47,6.1,17.91,7.02c5.03,0.7,10.21,0.73,15.19-0.37c5.17-1.3,9.93-3.81,14.58-6.36c2.15-1.33,4.58-2.55,5.88-4.82
		c-0.25-0.18-0.76-0.53-1.02-0.71c-6.28,0.81-11.92,4.25-18.22,5.12c-9.06,2.14-18.49,0.79-27.27-1.89
		C490.056,397.376,486.216,394.916,481.776,394.856z"/>
	<path fill="#E18D54" stroke="#E18D54" stroke-width="0.5" d="M569.246,357.236c2.7-0.64,7.03-1.25,8.01,2.22
		c0.85,1.6-0.81,2.95-1.9,3.87c-4.89,3.5-11.65,2.03-16.56,5.52c-3.12,2.22-5.91,5.03-9.6,6.31c-7.81,2.72-16.08,3.62-24.2,4.91
		c-10.3,1.6-20.72,2.09-31.12,2.58c-14.79,0.04-28.41-6.45-42.4-10.38c-3.04-0.69-5.16-3.03-6.92-5.44c1.13-1.83,3.21-2.5,5.29-2.11
		c5.56,0.27,9.37,4.75,14.02,7.17c6.48,3.35,13.82,4.47,21,5.2c12.02,1.29,24.15,0.41,36.12-0.99c9.1-1.23,18.41-2.46,26.83-6.32
		C555.376,366.276,560.786,358.896,569.246,357.236z"/>
	<path fill="#E18D54" stroke="#E18D54" stroke-width="0.5" d="M481.776,394.856c4.44,0.06,8.28,2.52,12.45,3.71
		c8.78,2.68,18.21,4.03,27.27,1.89c6.3-0.87,11.94-4.31,18.22-5.12c0.26,0.18,0.77,0.53,1.02,0.71c-1.3,2.27-3.73,3.49-5.88,4.82
		c-4.65,2.55-9.41,5.06-14.58,6.36c-4.98,1.1-10.16,1.07-15.19,0.37c-6.44-0.92-12.24-4.03-17.91-7.02
		C484.896,399.246,482.116,397.766,481.776,394.856z"/>
	<path fill="#FFAE6E" stroke="#FFAE6E" stroke-width="0.5" d="M478.546,441.716c0.72,13.69-0.16,27.41,0.31,41.09
		c6.64-2.31,12.69-5.95,18.99-9.02c16.66-8.27,33.26-16.67,49.79-25.2c0.46-1.94,0.98-3.87,1.85-5.67
		c-0.6,10.3-0.3,20.64-0.23,30.96c-0.34,11.97,4.96,24.29,14.73,31.44c0.21,0.81,0.44,1.63,0.66,2.45
		c-10.78,13.87-27.26,21.71-43.68,26.81c1.12,3.11,3.13,5.76,5.03,8.43c-8.4,0.1-16.81,0.11-25.22,0.02
		c1.92-2.61,3.71-5.3,5.35-8.09c-12.42-4.52-25.05-9.37-35.19-18.14c-3.19-3.05-7.61-5.8-8.14-10.58
		c9.44-6.5,15.88-17.77,15.64-29.35C478.086,465.146,478.226,453.416,478.546,441.716z"/>
	<path fill="#00DDD5" stroke="#00DDD5" stroke-width="0.5" d="M419.936,484.976c7.94-7.05,18.3-11.49,28.96-11.78
		c2.19-0.06,4.52-0.32,6.54,0.77c-0.13,7.17-1.32,14.76,1.84,21.5c1.28,3.87,4.6,6.76,5.52,10.75c0.53,4.78,4.95,7.53,8.14,10.58
		c10.14,8.77,22.77,13.62,35.19,18.14c-1.64,2.79-3.43,5.48-5.35,8.09c-6.83,0.16-13.66-0.23-20.48,0.26
		c-2.3,9.35-1.77,19.59,2.12,28.47c-0.61,4.27-3.45,7.54-6.64,10.2c-3.02-3.42-7.15-5.52-10.81-8.15
		c-17.83-12.46-35.03-27-45.8-46.24c-4.47-7.7-8.03-16.5-7.21-25.56C412.576,495.626,415.416,489.516,419.936,484.976z"/>
	<path fill="#00DDD5" stroke="#00DDD5" stroke-width="0.5" d="M571.336,474.056c4.47-1.83,9.61-0.66,14.23,0.07
		c7.9,1.68,15.26,5.42,21.26,10.83c6.72,6.4,9.71,16.37,7.8,25.43c-1.57,8.07-5.66,15.36-9.96,22.26
		c-11.57,17.51-27.98,31.15-45.22,42.81c-3.36,2.38-7.66,4.22-9.11,8.4c-0.93-4.3-4.3-7.35-6.25-11.15
		c3.96-9.23,5.52-19.76,2.49-29.51c-6.85-0.31-13.72-0.04-20.58-0.19c-1.9-2.67-3.91-5.32-5.03-8.43
		c16.42-5.1,32.9-12.94,43.68-26.81c-0.22-0.82-0.45-1.64-0.66-2.45c3.08-4.8,6.3-9.71,7.35-15.42
		C571.926,484.636,571.566,479.326,571.336,474.056z"/>
	<path fill="#FFFFFF" stroke="#FFFFFF" stroke-width="0.5" d="M416.016,487.076c1.17-0.92,2.5-1.63,3.92-2.1
		c-4.52,4.54-7.36,10.65-7.98,17.03c-0.82,9.06,2.74,17.86,7.21,25.56c10.77,19.24,27.97,33.78,45.8,46.24
		c3.66,2.63,7.79,4.73,10.81,8.15c4.21,11.15,9.06,22.07,12.53,33.49c2.16,6.05,3,12.58,6.28,18.2c0.21,9.23-1.65,18.31-2.4,27.47
		c-4.67,44.36-7.77,88.89-9.14,133.48c-0.59,2.16-1.21,4.33-1.65,6.55c-4.13-6.71-6.89-14.12-10.81-20.94
		c-7.19-14.76-15.72-28.81-24.08-42.94c-6.87-10.97-13.98-21.84-21.99-32.03c-6.79-6.89-12.5-14.86-20.13-20.91
		c-7.85-7-16.93-12.7-26.89-16.15c-3.02-1.09-6.91-2.55-7.23-6.27c0.68-2.8,2.63-5.05,4.47-7.18c7.92-8.41,16.69-16.03,24.05-24.96
		c5.34-5.99,12.49-10.23,17.16-16.85c1.53-2.27,2.12-5.95-0.22-7.89c-2.41-1.72-5.4-2.27-8.21-2.98
		c-13.19-2.75-26.23-6.13-39.22-9.7c-4.95-1.26-9.97-3.53-15.18-2.4c-0.05,0.5-0.16,1.5-0.21,2.01
		c-3.16-15.22-9.64-30.51-21.71-40.77c0.43,0.11,1.29,0.35,1.72,0.46c11.88-10.08,24.55-19.19,36.78-28.84
		C385.146,510.906,400.616,499.036,416.016,487.076z"/>
	<path fill="#FFFFFF" stroke="#FFFFFF" stroke-width="0.5" d="M606.826,484.956c1.41,0.49,2.77,1.15,3.97,2.09
		c21.98,16.98,44,33.92,66,50.88c6.69,5.29,13.85,10.1,19.62,16.44c2.82,2.9,4.41,6.71,5.79,10.46c-0.18,4.58-1.53,9.22-4.92,12.48
		c-6.97,7.19-17.26,8.97-26.53,11.45c-13.1,3.75-26.35,6.92-39.53,10.38c-6.02,1.55-12.39,1.62-18.22,3.89
		c-2.58,0.91-4.45,3.76-3.79,6.5c0.71,3.68,3.45,6.48,6.17,8.86c6.29,5.34,11.8,11.52,17.75,17.24c4.81,4.54,8.65,9.99,13.47,14.53
		c2.83,2.84,6.03,5.4,8.25,8.78c2.05,2.78-0.14,6.69-3.02,7.84c-4.58,2.02-9.32,3.68-13.83,5.86c-0.26-5.67,0.56-11.41-0.65-17.01
		c-0.57,10.04-0.32,20.11-0.73,30.16c-4.37,0.23-8.75,0.19-13.12,0.17c-1.23,0.16-2.59,0.19-3.54,1.1
		c-12.88,11.8-22.17,26.75-31.63,41.27c-9.22,14.76-17.33,30.18-25.48,45.55c-5.89,12.92-12.42,25.55-17.86,38.68l-0.61,0.71
		c0.05-12.82-1.15-25.59-1.09-38.41c-0.85-12.94-1.5-25.89-2.02-38.84c-1.51-13.78-1.57-27.69-3.58-41.42
		c-1.08-20.72-3.91-41.3-6.1-61.91c1.61-1.57,3-3.4,3.47-5.63c3.92-14.79,9.25-29.16,15.27-43.2c1.45-4.18,5.75-6.02,9.11-8.4
		c17.24-11.66,33.65-25.3,45.22-42.81c4.3-6.9,8.39-14.19,9.96-22.26C616.536,501.326,613.546,491.356,606.826,484.956
		 M548.506,655.566c-0.26,9.82-0.49,19.71,0.11,29.52c29.19,0.25,58.39,0.15,87.58,0.07c0.46-9.85,0.29-19.75,0.05-29.62
		C607.006,655.426,577.746,655.376,548.506,655.566z"/>
	<path fill="#003342" stroke="#003342" stroke-width="0.5" d="M237.856,537.516c9.71,0.24,19.31-1.45,29.02-1.31
		c7.32-0.62,14.66-0.88,22.01-0.98c15.53-1.08,31.04,5.46,42.31,15.96c12.07,10.26,18.55,25.55,21.71,40.77
		c4.71,23.46,9.39,46.93,13.84,70.45c6.89,32.92,13.42,65.91,20.1,98.88c2.6,11.7,4.28,23.63,7.77,35.12
		c-10.87,1.36-21.77,2.52-32.7,3.14c-8.71,0.88-17.57,1.03-26.04,3.41c-4.33,1.2-8.28,4.48-9.32,8.99
		c-0.84,4.04,2.29,7.84,6.03,8.98c6.61,2.09,13.67,1.71,20.48,2.73c-5.49,2.38-11.88,1.35-17.2,4.23c-3.7,1.82-6.67,5.74-6.32,10
		c0.87,4.77,5.87,7.05,10.22,7.61c8.01,1.16,16.1,1.83,24.19,2.21c-7.22,0.84-14.57,1.02-21.64,2.88c-3.95,1.01-7.76,3.7-9,7.74
		c-0.6,2.57-0.56,5.72,1.49,7.67c2.52,2.6,6.28,3.24,9.71,3.77c7.42,1.04,14.91,1.74,22.42,1.67c-3.01,1.07-6.11,2.02-8.86,3.69
		c-4.99,3.19-5.66,11.69-0.52,15.08c4.83,3.26,11.01,2.82,16.55,3.74c13.26,2.03,26.7,1.67,40.08,1.6
		c2.45,14.09,5.22,28.13,8.16,42.13c3.6,12.72,5.05,26.13,3.52,39.29c-1.5,9.85-5.48,20.07-13.69,26.21
		c-3.1,2.5-6.77,4.15-10.56,5.29c0.02,0.18,0.07,0.52,0.09,0.69c-10.13,2.28-20.54,1.31-30.83,1.43
		c-23.39,0.08-46.78-0.03-70.17-0.01c-13.25-0.76-26.56-0.09-39.83-0.36c-26.67,0.09-53.34-0.18-80.01-0.08
		c-7.12-0.03-14.13-1.38-21.16-2.27c-14.93-3.09-29.5-10.67-38.59-23.21c-5.71-8.25-7.73-18.28-10.26-27.81
		c13.7-5.9,26.36-13.94,38.68-22.3c6.81-4.8,13.55-9.72,19.91-15.11c2.79-2.52,5.95-5.52,5.97-9.57c0.32-5.06-4.87-8.83-9.58-8.72
		c-6.97-0.32-12.55,4.52-18.91,6.56c7.1-5.88,15.33-10.39,21.73-17.09c2.65-2.6,3.87-6.62,2.56-10.17
		c-2.5-4.62-8.55-6.13-13.34-4.62c-6.3,1.85-11.96,5.3-17.95,7.9c6.07-5.61,13.56-9.54,19.12-15.71c2.55-2.62,3.45-6.9,1.8-10.2
		c-2.84-4.61-8.99-5.29-13.78-3.84c-6.57,1.93-12.5,5.48-18.56,8.58c-9.15,5.39-18.76,9.97-28.51,14.15
		c14.93-12.9,29.29-26.56,41.82-41.85c2.53-3.17,4.73-7.28,3.4-11.42c-2.19-4.78-8.38-6.17-13.01-4.41
		c-6.22,2.3-11.31,6.73-16.58,10.62c-10.97,8.71-21.93,17.43-33.19,25.77c-5.2-18.33-10.15-36.74-15.67-54.99
		c-1.83-8.75-5.01-17.12-6.96-25.84c-8.63-29.85-16.92-59.79-25.17-89.74c-3.46-9.92-5.17-20.34-8.55-30.28
		c-3.12-12.07-7.84-23.73-9.64-36.11c-1.81-9.4-1.25-19.05-1.07-28.56c1.3-12.62,7.15-25.29,17.57-32.9
		c5.3-3.82,11.48-6.34,17.77-7.99c18.63-2.64,37.52-2.32,56.24-4.01c7.72-0.92,15.59,0.29,23.21-1.52
		c10.55-0.97,21.16-0.9,31.7-1.92c5.68,0.09,11.32-0.39,16.95-1.07c11.37,0.04,22.7-0.94,34.02-1.88
		C221.186,538.556,229.546,538.346,237.856,537.516z"/>
	<path fill="#FF5353" stroke="#FF5353" stroke-width="0.5" d="M480.296,543.286c6.82-0.49,13.65-0.1,20.48-0.26
		c8.41,0.09,16.82,0.08,25.22-0.02c6.86,0.15,13.73-0.12,20.58,0.19c3.03,9.75,1.47,20.28-2.49,29.51
		c-3.02,6.93-7.9,12.88-13.54,17.85c-1.79,1.71-3.91,3.18-5.16,5.36c0.16,2.65,0.87,5.22,1.42,7.82c2.23,9.53,2.87,19.35,4.79,28.95
		c2.19,20.61,5.02,41.19,6.1,61.91c2.01,13.73,2.07,27.64,3.58,41.42c0.52,12.95,1.17,25.9,2.02,38.84
		c-0.06,12.82,1.14,25.59,1.09,38.41c-0.24,15.2,0.17,30.42-0.33,45.62c-0.85,8.8-0.4,17.68-1.48,26.47
		c-0.67,11.82-1.69,23.59-3.32,35.32c-1.77,12.49-4.53,24.81-8.02,36.93c-3.34,7.47-5.89,15.89-12.23,21.46
		c-3.76,3.32-9.59,1.89-12.73-1.56c-5.68-6.05-8.04-14.26-11.08-21.79c-1.75-6.67-3.32-13.39-4.91-20.1
		c-2.26-9.46-2.91-19.19-4.38-28.77c-3.18-37.32-4.32-74.83-2.86-112.25c1.37-44.59,4.47-89.12,9.14-133.48
		c0.75-9.16,2.61-18.24,2.4-27.47c0.8-2.16,1.53-4.37,1.78-6.67c1.43-10.44,2.79-20.93,5.56-31.12c-7.6-7.04-15.69-14.17-19.51-24.1
		C478.526,562.876,477.996,552.636,480.296,543.286z"/>
	<path fill="#F3F3F3" stroke="#F3F3F3" stroke-width="0.5" d="M702.206,564.826c5.64,4.58,10.27,10.24,15.13,15.61
		c12.9,15.02,24.06,31.62,32.36,49.63c7.71,16.38,12.83,33.81,17.48,51.26c2.05,9.08,4.68,18.12,5.32,27.43
		c0.25-0.52,0.51-1.03,0.77-1.54c-0.1,7.97,2.05,15.77,2.14,23.75c1.97,17.65,0.82,35.52-1.83,53.05
		c-6.22,40.58-28.82,78.66-62.22,102.68c-22.7,17.19-49.7,28.16-77.38,34.3c-9.29,1.62-18.52,3.79-27.96,4.24
		c-11.01,1.25-22.09,0.39-33.13,0.71c-11.02,0.32-21.89-2.65-32.91-1.73c-0.26-1.19-0.5-2.37-0.72-3.54
		c1.63-11.73,2.65-23.5,3.32-35.32c1.08-8.79,0.63-17.67,1.48-26.47c0.5-15.2,0.09-30.42,0.33-45.62l0.61-0.71
		c0.23,5.22,0.13,10.46,0.2,15.7c6.53,3.08,13.79,1.04,20.66,0.77c20.3-1.37,41.06-7.01,57.05-20.11c4.61-3.45,7.79-8.32,11.02-13
		c6.01-8.29,8.27-18.61,9.49-28.59c1.16-8.35-0.22-16.74-1.08-25.04c-3.05-17.94-9.09-35.32-17.11-51.63
		c-0.67-1.54-1.2-3.13-1.72-4.7c4.37,0.02,8.75,0.06,13.12-0.17c0.41-10.05,0.16-20.12,0.73-30.16c1.21,5.6,0.39,11.34,0.65,17.01
		c4.51-2.18,9.25-3.84,13.83-5.86c2.88-1.15,5.07-5.06,3.02-7.84c-2.22-3.38-5.42-5.94-8.25-8.78c-4.82-4.54-8.66-9.99-13.47-14.53
		c-5.95-5.72-11.46-11.9-17.75-17.24c-2.72-2.38-5.46-5.18-6.17-8.86c-0.66-2.74,1.21-5.59,3.79-6.5c5.83-2.27,12.2-2.34,18.22-3.89
		c13.18-3.46,26.43-6.63,39.53-10.38c9.27-2.48,19.56-4.26,26.53-11.45C700.676,574.046,702.026,569.406,702.206,564.826z"/>
	<path fill="#00C2B9" stroke="#00C2B9" stroke-width="0.5" d="M482.416,571.756c3.82,9.93,11.91,17.06,19.51,24.1
		c-2.77,10.19-4.13,20.68-5.56,31.12c-0.25,2.3-0.98,4.51-1.78,6.67c-3.28-5.62-4.12-12.15-6.28-18.2
		c-3.47-11.42-8.32-22.34-12.53-33.49C478.966,579.296,481.806,576.026,482.416,571.756z"/>
	<path fill="#00C2B9" stroke="#00C2B9" stroke-width="0.5" d="M530.546,590.556c5.64-4.97,10.52-10.92,13.54-17.85
		c1.95,3.8,5.32,6.85,6.25,11.15c-6.02,14.04-11.35,28.41-15.27,43.2c-0.47,2.23-1.86,4.06-3.47,5.63
		c-1.92-9.6-2.56-19.42-4.79-28.95c-0.55-2.6-1.26-5.17-1.42-7.82C526.636,593.736,528.756,592.266,530.546,590.556z"/>
	<path fill="#EEEEEE" stroke="#EEEEEE" stroke-width="0.5" d="M353.116,589.946c5.21-1.13,10.23,1.14,15.18,2.4
		c12.99,3.57,26.03,6.95,39.22,9.7c2.81,0.71,5.8,1.26,8.21,2.98c2.34,1.94,1.75,5.62,0.22,7.89c-4.67,6.62-11.82,10.86-17.16,16.85
		c-7.36,8.93-16.13,16.55-24.05,24.96c-1.84,2.13-3.79,4.38-4.47,7.18c0.32,3.72,4.21,5.18,7.23,6.27
		c9.96,3.45,19.04,9.15,26.89,16.15c7.63,6.05,13.34,14.02,20.13,20.91c8.01,10.19,15.12,21.06,21.99,32.03
		c8.36,14.13,16.89,28.18,24.08,42.94c3.92,6.82,6.68,14.23,10.81,20.94c0.4,8.1,0.12,16.23,0.23,24.35
		c-9.29,0.3-18.36-2.23-27.59-2.87c-8.8-0.6-17.38-2.67-26.07-3.97c-1.65-0.41-3.27,0.01-4.67,0.9c-0.34-0.17-1.02-0.51-1.35-0.68
		c3.38-3.54,6.65-7.83,6.39-13c0.2-4.95-4.03-8.89-8.66-9.7c-8.28-1.63-16.72,0.23-25.06,0.23c-3.49-11.49-5.17-23.42-7.77-35.12
		c-6.68-32.97-13.21-65.96-20.1-98.88c-4.45-23.52-9.13-46.99-13.84-70.45C352.956,591.446,353.066,590.446,353.116,589.946z"/>
	<path fill="#DD2C08" stroke="#DD2C08" stroke-width="0.5" d="M548.506,655.566c29.24-0.19,58.5-0.14,87.74-0.03
		c0.24,9.87,0.41,19.77-0.05,29.62c-29.19,0.08-58.39,0.18-87.58-0.07C548.016,675.276,548.246,665.386,548.506,655.566z"/>
	<path fill="#EEEEEE" stroke="#EEEEEE" stroke-width="0.5" d="M619.966,687.056c0.95-0.91,2.31-0.94,3.54-1.1
		c0.52,1.57,1.05,3.16,1.72,4.7c8.02,16.31,14.06,33.69,17.11,51.63c0.86,8.3,2.24,16.69,1.08,25.04
		c-1.22,9.98-3.48,20.3-9.49,28.59c-3.23,4.68-6.41,9.55-11.02,13c-15.99,13.1-36.75,18.74-57.05,20.11
		c-6.87,0.27-14.13,2.31-20.66-0.77c-0.07-5.24,0.03-10.48-0.2-15.7c5.44-13.13,11.97-25.76,17.86-38.68
		c8.15-15.37,16.26-30.79,25.48-45.55C597.796,713.806,607.086,698.856,619.966,687.056z"/>
	<path fill="#F3F3F3" stroke="#F3F3F3" stroke-width="0.5" d="M481.396,801.146c0.44-2.22,1.06-4.39,1.65-6.55
		c-1.46,37.42-0.32,74.93,2.86,112.25c-0.06,1.96-0.2,3.92-0.32,5.9c-7.32-4.05-15.57-5.69-23.5-8.08
		c-10.36-3.01-20.37-7.09-30.68-10.24c0.04-0.85,0.08-1.69,0.12-2.52c5.65-4.36,8.76-12.95,4.65-19.32
		c-2.17-3.47-6.6-3.76-10.22-4.51c2.87-2.79,6.38-5.24,7.97-9.04c0.96-2.98,1.16-6.39,0.04-9.34c-1.84-3.59-5.92-4.96-9.26-6.73
		c3.66-3.82,7.51-8.41,6.66-14.12c0.13-4.8-4.38-7.38-8.07-9.29c1.4-0.89,3.02-1.31,4.67-0.9c8.69,1.3,17.27,3.37,26.07,3.97
		c9.23,0.64,18.3,3.17,27.59,2.87C481.516,817.376,481.796,809.246,481.396,801.146z"/>
	<path fill="#FFAE6E" stroke="#FFAE6E" stroke-width="0.5" d="M361.916,799.546c10.93-0.62,21.83-1.78,32.7-3.14
		c8.34,0,16.78-1.86,25.06-0.23c4.63,0.81,8.86,4.75,8.66,9.7c0.26,5.17-3.01,9.46-6.39,13c0.33,0.17,1.01,0.51,1.35,0.68
		c3.69,1.91,8.2,4.49,8.07,9.29c0.85,5.71-3,10.3-6.66,14.12c3.34,1.77,7.42,3.14,9.26,6.73c1.12,2.95,0.92,6.36-0.04,9.34
		c-1.59,3.8-5.1,6.25-7.97,9.04c3.62,0.75,8.05,1.04,10.22,4.51c4.11,6.37,1,14.96-4.65,19.32c-5.32,2.79-11.43,3.42-17.34,3.64
		c-13.38,0.07-26.82,0.43-40.08-1.6c-5.54-0.92-11.72-0.48-16.55-3.74c-5.14-3.39-4.47-11.89,0.52-15.08
		c2.75-1.67,5.85-2.62,8.86-3.69c-7.51,0.07-15-0.63-22.42-1.67c-3.43-0.53-7.19-1.17-9.71-3.77c-2.05-1.95-2.09-5.1-1.49-7.67
		c1.24-4.04,5.05-6.73,9-7.74c7.07-1.86,14.42-2.04,21.64-2.88c-8.09-0.38-16.18-1.05-24.19-2.21c-4.35-0.56-9.35-2.84-10.22-7.61
		c-0.35-4.26,2.62-8.18,6.32-10c5.32-2.88,11.71-1.85,17.2-4.23c-6.81-1.02-13.87-0.64-20.48-2.73c-3.74-1.14-6.87-4.94-6.03-8.98
		c1.04-4.51,4.99-7.79,9.32-8.99C344.346,800.576,353.206,800.426,361.916,799.546z"/>
	<path fill="#FFAE6E" stroke="#FFAE6E" stroke-width="0.5" d="M132.206,819.026c4.63-1.76,10.82-0.37,13.01,4.41
		c1.33,4.14-0.87,8.25-3.4,11.42c-12.53,15.29-26.89,28.95-41.82,41.85c9.75-4.18,19.36-8.76,28.51-14.15
		c6.06-3.1,11.99-6.65,18.56-8.58c4.79-1.45,10.94-0.77,13.78,3.84c1.65,3.3,0.75,7.58-1.8,10.2c-5.56,6.17-13.05,10.1-19.12,15.71
		c5.99-2.6,11.65-6.05,17.95-7.9c4.79-1.51,10.84,0,13.34,4.62c1.31,3.55,0.09,7.57-2.56,10.17c-6.4,6.7-14.63,11.21-21.73,17.09
		c6.36-2.04,11.94-6.88,18.91-6.56c4.71-0.11,9.9,3.66,9.58,8.72c-0.02,4.05-3.18,7.05-5.97,9.57c-6.36,5.39-13.1,10.31-19.91,15.11
		c-12.32,8.36-24.98,16.4-38.68,22.3c-5.25,1.08-11.47,1.54-15.96-2.01c-3.85-2.83-6.84-8.02-4.92-12.8
		c0.81-3.16,3.86-4.78,5.56-7.36c-6.94,0.68-15.33-3.21-16.31-10.76c-0.83-4.66,2.63-8.24,5.53-11.36
		c-6.14,0.68-12.48-2.72-15.13-8.32c-0.82-3.05-0.85-6.71,1.29-9.25c1.22-1.56,2.54-3.02,3.82-4.51c-4.87-0.94-9.98-2.88-12.31-7.62
		c-0.59-3.64-0.83-7.84,1.69-10.84c5.04-6.61,12.06-11.26,18.32-16.6c11.26-8.34,22.22-17.06,33.19-25.77
		C120.896,825.756,125.986,821.326,132.206,819.026z"/>
	<path fill="#EEEEEE" stroke="#EEEEEE" stroke-width="0.5" d="M633.976,920.996c27.68-6.14,54.68-17.11,77.38-34.3
		c-0.727,0.55,0.108,5.489,0.201,6.392c0.21,2.026,0.553,4.034,0.784,6.059c1.005,8.815,1.473,17.698,2.296,26.534
		c1.682,18.055,3.55,36.099,4.879,54.184c1.512,20.58,3.733,41.144,5.64,61.692c1.886,20.334,3.68,40.686,5.582,61.012
		c0.781,8.348,1.502,16.702,2.234,25.054c1.03,11.746,2.084,23.491,3.364,35.212c1.088,9.961,2.068,19.934,2.827,29.925
		c0.36,4.742,0.545,9.502,0.938,14.241c0.413,4.978,1.164,9.919,1.394,14.914c1.1,4.93,0.59,10.01,1.41,14.98
		c1.24,11.93,2.2,23.94,1.67,35.97c-0.17,7.12-2.64,14.16-6.81,19.94c-6.21,7.98-15.33,13.1-24.67,16.6
		c-13.66,5.21-28.3,6.81-42.64,9c-14.07,2.5-28.4,2.44-42.64,2.06c-7.1-0.27-14.01-2.24-20.7-4.52
		c-16.28-5.03-28.89-18.56-35.42-33.99c-3.43-7.9-6.12-16.09-7.79-24.54c-3.76-13.69-4.49-27.92-6.29-41.94
		c-1.99-22.28-5.94-44.33-8.58-66.54c-1.1-10.95-3.2-21.78-3.93-32.77c-2.03-13.7-3.19-27.51-4.66-41.27
		c-0.31-9.7-1.72-19.32-2.47-28.98c-2.83-29.4-5.02-58.84-6.74-88.31c3.49-12.12,6.25-24.44,8.02-36.93
		c0.22,1.17,0.46,2.35,0.72,3.54c11.02-0.92,21.89,2.05,32.91,1.73c11.04-0.32,22.12,0.54,33.13-0.71
		C615.456,924.786,624.686,922.616,633.976,920.996 M636.216,997.086c-10.77,2.69-17.94,14.48-16.04,25.27
		c1.35,6.51,3.63,12.8,6.21,18.92c4.31,9.67,8.05,19.61,13.03,28.98c6.13,12.88,13.29,25.51,23.14,35.95
		c5.68,5.01,12.45,9.64,20.29,10c6.2,0.36,13.33-0.74,17.38-5.96c4.99-5.08,4.82-12.96,2.75-19.3c-2.71-7.8-7.01-14.91-11.12-22.03
		c-4.08-6.73-7.05-14.04-11.13-20.77c-5.21-10.17-10.34-20.38-15.36-30.64c-2.57-6.3-5.34-12.99-11.08-17.07
		C649.276,996.376,642.326,995.666,636.216,997.086z"/>
	<path fill="#EEEEEE" stroke="#EEEEEE" stroke-width="0.5" d="M414.186,895.546c5.91-0.22,12.02-0.85,17.34-3.64
		c-0.04,0.83-0.08,1.67-0.12,2.52c10.31,3.15,20.32,7.23,30.68,10.24c7.93,2.39,16.18,4.03,23.5,8.08c0.12-1.98,0.26-3.94,0.32-5.9
		c1.47,9.58,2.12,19.31,4.38,28.77c1.59,6.71,3.16,13.43,4.91,20.1c-2.57,32.09-5.2,64.18-8.67,96.18
		c-0.61,6.99-1.74,13.94-2.06,20.96c-2.17,22.06-5.34,44.01-8.01,66.01c-5.03,37.5-11.17,74.83-16.61,112.26
		c-2.72,14.93-5.59,30.49-14.4,43.21c-6.27,9.5-15.74,16.78-26.45,20.6c-4.6,1.6-9.29,2.93-14.02,4.07
		c-15.3,1.52-30.8,2.05-46.08-0.04c-5.5-0.44-10.86-1.86-16.35-2.26c-11.68-1.61-23.26-4.41-34.36-8.4
		c-8.88-3.53-17.66-8.49-23.37-16.37c-4.5-6.01-6.81-13.58-6.55-21.07c-0.3-9.03,0.85-17.98,1.66-26.94
		c1.834-20.293,3.737-40.57,5.701-60.837c0.96-9.91,1.273-20.069,2.232-30.056c0.464-4.827,1.273-9.502,1.672-14.328
		c0.426-5.154,0.878-10.305,1.343-15.456c1.821-20.306,3.756-40.604,5.619-60.907c0.843-9.188,1.916-18.386,2.123-27.617
		c0.78-4.16,0.93-8.4,1.47-12.58c0.39-3.84,0.86-7.67,1.43-11.48c29.77,0.09,59.58,0.05,89.37,0.06c1.53,0.04,3.07,0.16,4.6,0.36
		c-1.64,1.18-3.68,1.12-5.6,1.18c-10.07,0-20.13-0.17-30.2-0.05c-0.9,4.44-2.74,8.6-4.96,12.53c-4.47,9.41-9.88,18.33-14.28,27.78
		c-5.29,11.12-12.18,21.4-17.61,32.46c-2.15,4.64-3.97,9.64-3.88,14.84c0.16,5.83,3.56,11.61,8.9,14.14
		c7.74,3.59,17.28,3,24.49-1.58c6.94-4.53,13.53-9.92,18.11-16.92c9.46-13.08,15.83-28.01,22.27-42.72
		c3.31-7.77,7.23-15.31,9.62-23.44c1.87-6.54,2.84-13.95-0.64-20.15c-0.02-0.17-0.07-0.51-0.09-0.69c3.79-1.14,7.46-2.79,10.56-5.29
		c8.21-6.14,12.19-16.36,13.69-26.21c1.53-13.16,0.08-26.57-3.52-39.29C419.406,923.676,416.636,909.636,414.186,895.546z"/>
	<path fill="#00C2B9" stroke="#00C2B9" stroke-width="0.5" d="M495.196,955.716c3.04,7.53,5.4,15.74,11.08,21.79
		c3.14,3.45,8.97,4.88,12.73,1.56c6.34-5.57,8.89-13.99,12.23-21.46c1.72,29.47,3.91,58.91,6.74,88.31
		c0.75,9.66,2.16,19.28,2.47,28.98c-15.51,0.92-31.11,0.76-46.6-0.42c-3.19-0.18-6.3-0.86-9.38-1.62
		c0.32-7.02,1.45-13.97,2.06-20.96C489.996,1019.896,492.626,987.806,495.196,955.716z"/>
	<path fill="#FFFFFF" stroke="#FFFFFF" stroke-width="0.5" d="M636.216,997.086c6.11-1.42,13.06-0.71,18.07,3.35
		c5.74,4.08,8.51,10.77,11.08,17.07c5.02,10.26,10.15,20.47,15.36,30.64c4.08,6.73,7.05,14.04,11.13,20.77
		c4.11,7.12,8.41,14.23,11.12,22.03c2.07,6.34,2.24,14.22-2.75,19.3c-4.05,5.22-11.18,6.32-17.38,5.96
		c-7.84-0.36-14.61-4.99-20.29-10c-9.85-10.44-17.01-23.07-23.14-35.95c-4.98-9.37-8.72-19.31-13.03-28.98
		c-2.58-6.12-4.86-12.41-6.21-18.92C618.276,1011.566,625.446,999.776,636.216,997.086z"/>
	<path fill="#FFFFFF" stroke="#FFFFFF" stroke-width="0.5" d="M300.706,1010.576c23.39-0.02,46.78,0.09,70.17,0.01
		c10.29-0.12,20.7,0.85,30.83-1.43c3.48,6.2,2.51,13.61,0.64,20.15c-2.39,8.13-6.31,15.67-9.62,23.44
		c-6.44,14.71-12.81,29.64-22.27,42.72c-4.58,7-11.17,12.39-18.11,16.92c-7.21,4.58-16.75,5.17-24.49,1.58
		c-5.34-2.53-8.74-8.31-8.9-14.14c-0.09-5.2,1.73-10.2,3.88-14.84c5.43-11.06,12.32-21.34,17.61-32.46
		c4.4-9.45,9.81-18.37,14.28-27.78c2.22-3.93,4.06-8.09,4.96-12.53c10.07-0.12,20.13,0.05,30.2,0.05c1.92-0.06,3.96,0,5.6-1.18
		c-1.53-0.2-3.07-0.32-4.6-0.36c-29.79-0.01-59.6,0.03-89.37-0.06L300.706,1010.576z"/>
	<path fill="#394F50" stroke="#394F50" stroke-width="0.5" d="M476.456,1138.866c2.67-22,5.84-43.95,8.01-66.01
		c3.08,0.76,6.19,1.44,9.38,1.62c15.49,1.18,31.09,1.34,46.6,0.42c1.47,13.76,2.63,27.57,4.66,41.27
		c0.73,10.99,2.83,21.82,3.93,32.77c2.64,22.21,6.59,44.26,8.58,66.54c1.8,14.02,2.53,28.25,6.29,41.94
		c1.67,8.45,4.36,16.64,7.79,24.54c6.53,15.43,19.14,28.96,35.42,33.99c6.69,2.28,13.6,4.25,20.7,4.52
		c14.24,0.38,28.57,0.44,42.64-2.06c-0.128,0.023-0.031,9.197-0.057,10.059c-0.104,3.417-0.285,6.832-0.507,10.243
		c-0.444,6.825-1.057,13.638-1.568,20.459c-0.255,3.409-0.486,6.82-0.657,10.234c-0.159,3.184-0.002,6.403-0.254,9.553
		c-0.904,11.283-2.013,22.57-2.267,33.892c-1.21,11.3-0.25,22.72-1.49,34.03c-0.64,18.66,0.05,37.36-1.06,56.01
		c0.03,27.99-0.61,56.02,0.55,84c0.1,14.35,0.1,28.71,0.33,43.06c-0.11,8.64,1.07,17.22,0.88,25.86c0.26,7.36-0.07,14.74,0.67,22.08
		c0.54,8.08,0.11,16.2,0.78,24.27c0.97,7.88,0.06,15.88,1.26,23.75c0.8,15.59,1.83,31.19,3.6,46.72
		c3.2,19.64,6.33,39.38,12.29,58.42c1.77,5.65,3.53,11.3,5.25,16.98c-0.86,0.77-1.45,1.91-2.54,2.4
		c-10.59,4.62-22.09,6.39-33.5,7.56c-10.66-0.47-21.42,0.48-32-1.28c-8.75-1.19-17.68-3.09-25.23-7.91
		c-5.32-3.43-9.45-9.33-9.14-15.87c0.6-24.62-1.32-49.2-2.34-73.78c-0.65-13.75-1.49-27.48-2.32-41.22
		c-0.6-18.39-2.68-36.69-3.18-55.07c-1.28-11.37-0.61-22.84-1.66-34.22c-1.86-38.58-4.04-77.16-4.26-115.78
		c-1.31-11.31-0.32-22.71-1.69-34.01c-0.53-23.38-2.89-46.66-4.73-69.95c-3.89-47.58-8.9-95.05-14.33-142.48
		c-1.59-11.45-2.5-23-4.5-34.39c-2.03-12.38-4.32-25.18-11.09-35.97c-3.39-5.63-9.58-9.15-16.02-9.91
		c-7.74-0.88-15.33,1.28-22.88,2.61c-3.69,0.61-7.34,1.44-10.95,2.39c0.24,1.88,0.49,3.77,0.64,5.68c0.14,2.05-1.2,3.83-1.73,5.77
		c-2,6.21-2.53,12.79-2.51,19.29c-1.39,16.62-0.63,33.34-0.75,50c-0.1,17.68,1.02,35.31,0.67,53c0.34,10.01-0.8,19.98-0.65,30
		c0.199,13.346-0.225,26.699,0.037,40.047c0.272,13.838,0.604,27.674,0.996,41.509c0,27.213,1.813,54.556,3.014,81.738
		c1.081,24.446,2.054,48.895,3.191,73.339c1.289,27.722,2.577,55.444,3.866,83.165c0.456,9.8,1.42,19.699,1.42,29.507
		c1.268,27.671,2.629,55.337,4.082,82.998c0,11.311,1.211,22.761,1.836,34.056c0.602,10.881,2.144,21.797,3.448,32.66
		c0.18,2.06,0.25,4.14,0.36,6.23l-1.02,0.02c-6.98,0.39-13.88-1.01-20.85-0.93c-9.26-0.11-18.54,0.36-27.78-0.43
		c-11.71-2.82-23.75-5.08-34.59-10.55c-6.39-3.21-12.61-8-14.96-15.01c-1.81-5.1,0.35-10.34,1.3-15.35c1.74-8.89,1.21-18.01,1.36-27
		c-0.11-16.99,0.41-34.01-0.96-50.96c0.16-18.4-1.98-36.7-2.25-55.08c-1.25-10.96-0.68-22.01-1.4-33.01
		c-0.93-11.98-0.91-24.01-1.85-35.99c-0.88-10.73-0.69-21.49-1.46-32.22c-0.72-11.58-0.3-23.2-1.07-34.77
		c-0.29-13.66-0.06-27.34-1.28-40.96c-4.73-58.29-13.7-116.11-22.15-173.94c-0.62-4.41-0.9-8.94-2.66-13.07
		c10.93,0.62,22.15,0.81,32.83-1.88c4.73-1.14,9.42-2.47,14.02-4.07c10.71-3.82,20.18-11.1,26.45-20.6
		c8.81-12.72,11.68-28.28,14.4-43.21C465.286,1213.696,471.426,1176.366,476.456,1138.866z"/>
	<path fill="#182E30" stroke="#182E30" stroke-width="0.5" d="M496.796,1188.756c7.55-1.33,15.14-3.49,22.88-2.61
		c6.44,0.76,12.63,4.28,16.02,9.91c6.77,10.79,9.06,23.59,11.09,35.97c2,11.39,2.91,22.94,4.5,34.39
		c5.43,47.43,10.44,94.9,14.33,142.48c1.84,23.29,4.2,46.57,4.73,69.95c1.37,11.3,0.38,22.7,1.69,34.01
		c0.22,38.62,2.4,77.2,4.26,115.78c1.05,11.38,0.38,22.85,1.66,34.22c0.5,18.38,2.58,36.68,3.18,55.07
		c0.83,13.74,1.67,27.47,2.32,41.22c1.02,24.58,2.94,49.16,2.34,73.78c-0.31,6.54,3.82,12.44,9.14,15.87
		c7.55,4.82,16.48,6.72,25.23,7.91c10.58,1.76,21.34,0.81,32,1.28c-9.03,1.45-18.19,0.59-27.28,0.93
		c-19.76-0.05-39.49,0.93-59.23,1.63c-1.08-0.08-2.14-0.21-3.19-0.39c-0.478-0.082,0.636-36.396,0.609-39.919
		c-0.105-13.812-0.446-27.622-1.024-41.422c-0.339-8.086-1.365-16.332-1.365-24.399c-0.522-2.922-0.053-5.842-0.173-8.758
		c-0.142-3.459-0.281-6.917-0.421-10.376c-0.281-6.918-0.562-13.835-0.843-20.753c-0.562-13.835-1.123-27.67-1.685-41.505
		c-0.651-16.04-1.988-32.125-1.988-48.177c0.074-6.602-0.918-13.151-0.995-19.745c-0.08-6.89-0.247-13.78-0.476-20.666
		c-0.669-20.132-2.56-40.202-2.56-60.339c0.329-6.56-0.507-13.255-0.778-19.814c-0.285-6.903-0.593-13.806-0.924-20.707
		c-0.663-13.803-1.418-27.601-2.267-41.394c-1.28-20.813-2.026-41.911-4.551-62.614c-1.63-10.57-2.01-21.26-3.17-31.86
		c-0.95-5.68-1.03-11.45-1.87-17.13c-0.88-4.88-0.23-9.89-1.29-14.73c-0.69-5.96-0.72-11.98-1.65-17.92
		c-0.91-5.02-0.18-10.17-1.08-15.18c-1.2-5.83-0.28-11.84-1.39-17.67c-2.11-19.49-2.34-39.31-7.45-58.36
		c-0.82-3.2-2.02-6.39-4.12-8.97c-1.54-2.44-4.74-1.35-7.12-1.59c-9.13,0.4-18.34-0.7-27.4,0.67c-0.15-1.91-0.4-3.8-0.64-5.68
		C489.456,1190.196,493.106,1189.366,496.796,1188.756z"/>
	<path opacity="0.95" fill="#939B9B" stroke="#939B9B" stroke-width="0.5" enable-background="new    " d="M342.546,1316.706
		c5.49,0.4,10.85,1.82,16.35,2.26c15.28,2.09,30.78,1.56,46.08,0.04c-10.68,2.69-21.9,2.5-32.83,1.88
		c-7.89-0.32-15.76-1.02-23.56-2.24c-2.31-0.44-4.59-1-6.84-1.64L342.546,1316.706z"/>
	<path fill="#182E30" stroke="#182E30" stroke-width="0.5" d="M348.586,1318.646c7.8,1.22,15.67,1.92,23.56,2.24
		c1.76,4.13,2.04,8.66,2.66,13.07c8.45,57.83,17.42,115.65,22.15,173.94c1.22,13.62,0.99,27.3,1.28,40.96
		c0.77,11.57,0.35,23.19,1.07,34.77c0.77,10.73,0.58,21.49,1.46,32.22c0.94,11.98,0.92,24.01,1.85,35.99
		c0.72,11,0.15,22.05,1.4,33.01c0.27,18.38,2.41,36.68,2.25,55.08c1.37,16.95,0.85,33.97,0.96,50.96c-0.15,8.99,0.38,18.11-1.36,27
		c-0.95,5.01-3.11,10.25-1.3,15.35c2.35,7.01,8.57,11.8,14.96,15.01c10.84,5.47,22.88,7.73,34.59,10.55
		c-24.49,0.54-49.85,1.19-73.07-7.86c-2.13-0.76-4.55-2.44-3.45-5.01c3.5-13.06,5.87-26.38,7.61-39.77
		c2.72-11.88,2.07-24.18,3.31-36.24c0.09-14,0.48-28.04-0.7-42c-0.42-6.35-0.21-12.7-0.21-19.04c0.03-6.69-1.33-13.3-1.09-19.99
		c0.3-10.03-1.39-19.97-1.67-29.97c-0.12-7.05-1.29-14.03-1.27-21.07c0.05-5.69-0.97-11.31-1.05-16.98
		c-0.07-4.08-0.01-8.16-0.56-12.2c-1.71-11.3-1.5-22.78-3.06-34.1c-0.61-5.23-1.45-10.45-1.44-15.72c0.06-4.72-1.32-9.31-1.17-14.02
		c0.08-5.36-1.31-10.58-1.55-15.91c-0.17-5.73-1.68-11.32-1.5-17.07c-1.15-7.18-0.91-14.5-2.44-21.61
		c-0.84-9.8-1.72-19.59-3.07-29.33c-0.54-9.04-1.81-18.01-3.04-26.98c-1.68-9.45-1.94-19.09-3.93-28.48
		c-2.73-22.96-6.64-45.76-10.18-68.59C350.096,1330.766,348.526,1324.746,348.586,1318.646z"/>
	<path opacity="0.51" fill="#101C1C" stroke="#101C1C" stroke-width="0.5" enable-background="new    " d="M378.906,1574.566
		c1.56,11.32,1.35,22.8,3.06,34.1c0.55,4.04,0.49,8.12,0.56,12.2c0.08,5.67,1.1,11.29,1.05,16.98c-0.02,7.04,1.15,14.02,1.27,21.07
		c0.28,10,1.97,19.94,1.67,29.97c-0.24,6.69,1.12,13.3,1.09,19.99c0,6.34-0.21,12.69,0.21,19.04c1.18,13.96,0.79,28,0.7,42
		c-1.24,12.06-0.59,24.36-3.31,36.24c0.14-9.82,2.44-19.49,2.02-29.32c0.01-9.34,1.6-18.66,0.62-28
		c-1.28-12.29-0.13-24.67-0.8-36.98c-1.89-11.85-0.21-23.96-2.27-35.79c-1.17-7.36,0.08-14.84-0.96-22.2
		c-0.47-3.31-0.72-6.65-0.72-9.97c0.2-10.08-2.44-19.94-1.9-30.02c-1.54-8.67-0.42-17.52-1.97-26.17
		C378.546,1583.356,378.346,1578.926,378.906,1574.566z"/>
	<path fill="#582200" stroke="#582200" stroke-width="0.5" d="M381.046,1850.936c23.22,9.05,48.58,8.4,73.07,7.86
		c9.24,0.79,18.52,0.32,27.78,0.43c6.97-0.08,13.87,1.32,20.85,0.93c-0.19,0.89-0.36,1.81-0.51,2.75
		c-15.36,8.05-32.15,12.8-48.84,17.21c-30.98,7.59-62.65,12.29-94.47,14.41c-9.05-0.31-18.01,1.35-27.05,1.06
		c-6.71-0.04-13.43,0.19-20.11-0.58c-8.47-0.97-17.31,0.61-25.41-2.71c1.94-2.15,4.82-2.69,7.43-3.56
		c9.83-3.4,19.31-7.7,29.13-11.11c9.02-3.77,18.01-7.64,26.98-11.53C360.676,1861.886,370.796,1856.246,381.046,1850.936z"/>
	<path fill="#582200" stroke="#582200" stroke-width="0.5" d="M652.166,1857.986c11.41-1.17,22.91-2.94,33.5-7.56
		c10.02,4.87,19.79,10.28,30.08,14.62c9.17,4.37,18.8,7.65,28.01,11.94c8.64,3.51,17.43,6.62,26.08,10.12
		c4.16,1.75,8.69,2.63,12.54,5.1c-3.64,1.48-7.54,2.32-11.48,2.3c-9.36-0.12-18.65,1.51-28.02,1.06
		c-8.35,0.22-16.67-0.17-24.98-0.93c-10.92,0.2-21.74-1.25-32.57-2.4c-23-2.18-45.77-6.43-68.23-11.81
		c-11.07-3.61-22.36-6.56-33.35-10.42c-6.1-1.95-11.77-5.14-18.09-6.38c0-0.77,0-2.31,0-3.08c19.74-0.7,39.47-1.68,59.23-1.63
		C633.976,1858.576,643.136,1859.436,652.166,1857.986z"/>
	<path fill="#331100" stroke="#331100" stroke-width="0.5" d="M453.396,1880.116c16.69-4.41,33.48-9.16,48.84-17.21
		c0.48,7.01-5.76,11.85-10.93,15.44c-16.24,10.19-35.07,14.86-53.46,19.52c-20.8,4.61-41.8,8.42-63,10.5
		c-6.7,0.25-13.28,1.8-19.99,1.89c-18.1,0.61-36.59,1.8-54.3-2.8c-5.54-1.56-11.21-3.72-15.15-8.09c-1.82-1.55-0.96-4.17-1.17-6.22
		c0.67-0.39,1.38-0.67,2.12-0.85c8.1,3.32,16.94,1.74,25.41,2.71c6.68,0.77,13.4,0.54,20.11,0.58c9.04,0.29,18-1.37,27.05-1.06
		C390.746,1892.406,422.416,1887.706,453.396,1880.116z"/>
	<path fill="#331100" stroke="#331100" stroke-width="0.5" d="M565.656,1863.626c6.32,1.24,11.99,4.43,18.09,6.38
		c10.99,3.86,22.28,6.81,33.35,10.42c22.46,5.38,45.23,9.63,68.23,11.81c10.83,1.15,21.65,2.6,32.57,2.4
		c8.31,0.76,16.63,1.15,24.98,0.93c9.37,0.45,18.66-1.18,28.02-1.06c3.94,0.02,7.84-0.82,11.48-2.3c2.43,1.03,3.12,3.78,1.84,6.05
		c-3.5,5.27-9.84,7.34-15.57,9.16c-12.98,3.28-26.47,3.61-39.78,3.4c-10.18-0.28-20.39-0.6-30.47-2.14
		c-10.68-0.64-21.26-2.2-31.8-4.05c-13.95-1.7-27.68-4.71-41.31-8.11c-9.06-1.78-17.62-5.27-26.47-7.79
		c-8.56-3.23-17.17-6.71-24.51-12.29C569.846,1873.556,566.466,1868.926,565.656,1863.626z"/>
</g>
</svg>
